<svg id="Layer_1" xmlns="http://www.w3.org/2000/svg" viewBox="0 0 342 53.2"><style>.st0{fill:#d0bfaf}.st1{fill:#393a4d}</style><path class="st0" d="M60.9 48.6c1 0 1.6-.6 1.6-1.4 0-.9-.6-1.4-1.6-1.4h-1.6v2.8h1.6zM57.3 44H61c2.2 0 3.5 1.3 3.5 3.2 0 2.1-1.6 3.2-3.7 3.2h-1.5v2.7h-2V44zm21.6 4.4c1 0 1.5-.5 1.5-1.3 0-.9-.6-1.3-1.6-1.3h-2v2.6h2.1zM74.8 44H79c1.2 0 2.1.3 2.7.9.5.5.8 1.2.8 2.1 0 1.5-.8 2.4-2 2.8l2.2 3.3h-2.3l-2-2.9h-1.6v2.9h-2V44zm18.4 0h2v9.1h-2zm19.4 0l-2.4 6.4-2.4-6.4h-2.2l3.7 9.2h1.8l3.7-9.2zm15.2 2.4l1.2 3h-2.4l1.2-3zm-.9-2.5l-3.9 9.2h2l.8-2h3.9l.8 2h2.1l-3.9-9.2h-1.8zm14.2.1v1.9h2.7v7.2h2.1v-7.2h2.7V44zm17.9 0v9.1h7v-1.7h-5v-2h4.3v-1.8H161v-1.8h4.9V44zm35.8 0l-2 6.2-1.9-6.2h-2.2l3.1 9.2h1.8l2-6 2.1 6h1.8l3.1-9.2h-2.1l-1.9 6.2-2.1-6.2zm18.1 0v9.1h7v-1.7h-5v-2h4.3v-1.8h-4.3v-1.8h4.9V44zm21.6 2.4l1.2 3h-2.4l1.2-3zm-.9-2.5l-3.9 9.2h2l.8-2h3.9l.8 2h2.1l-3.9-9.2h-1.8zm16.1.1v9.1h6.5v-1.8h-4.5V44zm15 0v1.9h2.7v7.2h2.1v-7.2h2.7V44zm23.6 0v3.6h-3.7V44h-2v9.1h2v-3.6h3.7v3.6h2.1V44z"/><path class="st1" d="M22.5-.1L12.9 29 2.7 0H0l11.8 32.8h2l9.5-28.3 9.6 28.3h1.9L46.7 0h-2.6L33.9 29 24.4-.1zm65 16.5c0-8.1-5.9-14.8-13.9-14.8-8.1 0-13.8 6.5-13.8 14.6v.1c0 8.1 5.9 14.7 13.9 14.7 8.1 0 13.8-6.6 13.8-14.6m-30.2 0c0-9 6.6-17 16.4-17C83.6-.6 90 7.3 90 16.2v.1c0 8.9-6.6 16.9-16.4 16.9s-16.3-7.9-16.3-16.8m76.3 0c0-8.1-5.9-14.8-13.9-14.8-8.1 0-13.8 6.5-13.8 14.6v.1c0 8.1 5.9 14.7 13.9 14.7 8.1 0 13.8-6.6 13.8-14.6m-30.2 0c0-9 6.6-17 16.4-17 9.9 0 16.3 7.9 16.3 16.8v.1c0 8.9-6.6 16.9-16.4 16.9-9.8 0-16.3-7.9-16.3-16.8m49.9-14.2v28.1h8.4c9.1 0 14.8-6.2 14.8-14v-.1c0-7.7-5.7-14.1-14.8-14.1h-8.4zM150.9 0h10.8C171.9 0 179 7 179 16.2v.1c0 9.2-7.1 16.3-17.3 16.3h-10.8V0zm56.4 17.3h-11v13.1h11.8c5.6 0 9.1-2.6 9.1-6.7v-.1c0-4-3.5-6.3-9.9-6.3m8.1-9.1c0-3.6-2.9-6-8.1-6h-11V15H207c4.9 0 8.4-2.3 8.4-6.8zM193.9 0h13.5c3.7 0 6.7 1.1 8.5 2.9C217.2 4.3 218 6 218 8v.1c0 4.4-2.9 6.7-5.5 7.7 3.9 1 7.4 3.3 7.4 7.8v.1c0 5.4-4.7 8.9-11.7 8.9H194V0zm39.6 19V0h2.4v18.8c0 7.7 4.1 12.1 11 12.1 6.6 0 10.9-4 10.9-11.9V0h2.4v18.8c0 9.4-5.5 14.3-13.4 14.3-7.8 0-13.3-4.9-13.3-14.1m55.8-2.1c5.4 0 9.5-2.7 9.5-7.5 0-4.4-3.4-7.1-9.4-7.1h-11.1V17h11zM275.9 0h13.7c4 0 7.2 1.3 9.2 3.2 1.5 1.5 2.5 3.7 2.5 6.1v.1c0 5.4-4 8.6-9.5 9.3l10.8 13.9h-3.1L289 19.1h-10.7v13.5h-2.4V0zm63.2 0l-12.3 17.5L314.6 0h-3l13.9 19.7v12.9h2.5V19.7L341.9 0z"/></svg>