<?xml version="1.0" encoding="utf-8"?>
<!-- Generator: Adobe Illustrator 19.0.0, SVG Export Plug-In . SVG Version: 6.00 Build 0)  -->
<svg version="1.1" id="Layer_1" xmlns="http://www.w3.org/2000/svg" xmlns:xlink="http://www.w3.org/1999/xlink" x="0px" y="0px"
	 viewBox="0 0 342 53.2" style="enable-background:new 0 0 342 53.2;" xml:space="preserve">
<style type="text/css">
	.st0{fill:#D0BFAF;}
	.st1{fill:#393A4D;}
</style>
<g>
	<path class="st0" d="M60.9,48.6c1,0,1.6-0.6,1.6-1.4v0c0-0.9-0.6-1.4-1.6-1.4h-1.6v2.8H60.9z M57.3,44H61c2.2,0,3.5,1.3,3.5,3.2v0
		c0,2.1-1.6,3.2-3.7,3.2h-1.5v2.7h-2V44z"/>
	<path class="st0" d="M78.9,48.4c1,0,1.5-0.5,1.5-1.3v0c0-0.9-0.6-1.3-1.6-1.3h-2v2.6H78.9z M74.8,44H79c1.2,0,2.1,0.3,2.7,0.9
		c0.5,0.5,0.8,1.2,0.8,2.1v0c0,1.5-0.8,2.4-2,2.8l2.2,3.3h-2.3l-2-2.9h-1.6v2.9h-2V44z"/>
</g>
<rect x="93.2" y="44" class="st0" width="2" height="9.1"/>
<polygon class="st0" points="112.6,44 110.2,50.4 107.8,44 105.6,44 109.3,53.2 111.1,53.2 114.8,44 "/>
<path class="st0" d="M127.8,46.4l1.2,3h-2.4L127.8,46.4z M126.9,43.9l-3.9,9.2h2l0.8-2h3.9l0.8,2h2.1l-3.9-9.2H126.9z"/>
<polygon class="st0" points="141.1,44 141.1,45.9 143.8,45.9 143.8,53.1 145.9,53.1 145.9,45.9 148.6,45.9 148.6,44 "/>
<polygon class="st0" points="159,44 159,53.1 166,53.1 166,51.4 161,51.4 161,49.4 165.3,49.4 165.3,47.6 161,47.6 161,45.8 
	165.9,45.8 165.9,44 "/>
<polygon class="st0" points="194.8,44 192.8,50.2 190.9,44 188.7,44 191.8,53.2 193.6,53.2 195.6,47.2 197.7,53.2 199.5,53.2 
	202.6,44 200.5,44 198.6,50.2 196.5,44 "/>
<polygon class="st0" points="212.9,44 212.9,53.1 219.9,53.1 219.9,51.4 214.9,51.4 214.9,49.4 219.2,49.4 219.2,47.6 214.9,47.6 
	214.9,45.8 219.8,45.8 219.8,44 "/>
<path class="st0" d="M234.5,46.4l1.2,3h-2.4L234.5,46.4z M233.6,43.9l-3.9,9.2h2l0.8-2h3.9l0.8,2h2.1l-3.9-9.2H233.6z"/>
<polygon class="st0" points="249.7,44 249.7,53.1 256.2,53.1 256.2,51.3 251.7,51.3 251.7,44 "/>
<polygon class="st0" points="264.7,44 264.7,45.9 267.4,45.9 267.4,53.1 269.5,53.1 269.5,45.9 272.2,45.9 272.2,44 "/>
<polygon class="st0" points="288.3,44 288.3,47.6 284.6,47.6 284.6,44 282.6,44 282.6,53.1 284.6,53.1 284.6,49.5 288.3,49.5 
	288.3,53.1 290.4,53.1 290.4,44 "/>
<polygon class="st1" points="22.5,-0.1 12.9,29 2.7,0 0,0 11.8,32.8 13.8,32.8 23.3,4.5 32.9,32.8 34.8,32.8 46.7,0 44.1,0 33.9,29 
	24.4,-0.1 "/>
<g>
	<path class="st1" d="M87.5,16.4L87.5,16.4c0-8.1-5.9-14.8-13.9-14.8c-8.1,0-13.8,6.5-13.8,14.6v0.1c0,8.1,5.9,14.7,13.9,14.7
		C81.8,31,87.5,24.4,87.5,16.4 M57.3,16.4L57.3,16.4c0-9,6.6-17,16.4-17c9.9,0,16.3,7.9,16.3,16.8v0.1c0,8.9-6.6,16.9-16.4,16.9
		S57.3,25.3,57.3,16.4"/>
	<path class="st1" d="M133.6,16.4L133.6,16.4c0-8.1-5.9-14.8-13.9-14.8c-8.1,0-13.8,6.5-13.8,14.6v0.1c0,8.1,5.9,14.7,13.9,14.7
		C127.9,31,133.6,24.4,133.6,16.4 M103.4,16.4L103.4,16.4c0-9,6.6-17,16.4-17c9.9,0,16.3,7.9,16.3,16.8v0.1
		c0,8.9-6.6,16.9-16.4,16.9C109.9,33.2,103.4,25.3,103.4,16.4"/>
	<path class="st1" d="M153.3,2.2v28.1h8.4c9.1,0,14.8-6.2,14.8-14v-0.1c0-7.7-5.7-14.1-14.8-14.1H153.3z M150.9,0h10.8
		c10.2,0,17.3,7,17.3,16.2v0.1c0,9.2-7.1,16.3-17.3,16.3h-10.8V0z"/>
	<path class="st1" d="M207.3,17.3h-11v13.1h11.8c5.6,0,9.1-2.6,9.1-6.7v-0.1C217.2,19.6,213.7,17.3,207.3,17.3 M215.4,8.2
		c0-3.6-2.9-6-8.1-6h-11V15H207C211.9,15,215.4,12.7,215.4,8.2L215.4,8.2z M193.9,0h13.5c3.7,0,6.7,1.1,8.5,2.9
		c1.3,1.4,2.1,3.1,2.1,5.1v0.1c0,4.4-2.9,6.7-5.5,7.7c3.9,1,7.4,3.3,7.4,7.8v0.1c0,5.4-4.7,8.9-11.7,8.9h-14.2V0z"/>
	<path class="st1" d="M233.5,19V0h2.4v18.8c0,7.7,4.1,12.1,11,12.1c6.6,0,10.9-4,10.9-11.9V0h2.4v18.8c0,9.4-5.5,14.3-13.4,14.3
		C239,33.1,233.5,28.2,233.5,19"/>
	<path class="st1" d="M289.3,16.9c5.4,0,9.5-2.7,9.5-7.5V9.4c0-4.4-3.4-7.1-9.4-7.1h-11.1v14.7H289.3z M275.9,0h13.7
		c4,0,7.2,1.3,9.2,3.2c1.5,1.5,2.5,3.7,2.5,6.1v0.1c0,5.4-4,8.6-9.5,9.3l10.8,13.9h-3.1L289,19.1h-10.7v13.5h-2.4V0z"/>
</g>
<polygon class="st1" points="339.1,0 326.8,17.5 314.6,0 311.6,0 325.5,19.7 325.5,32.6 328,32.6 328,19.7 341.9,0 "/>
</svg>
